<?xml version="1.0" encoding="UTF-8" standalone="no"?>
<svg
   xmlns:osb="http://www.openswatchbook.org/uri/2009/osb"
   xmlns:dc="http://purl.org/dc/elements/1.1/"
   xmlns:cc="http://creativecommons.org/ns#"
   xmlns:rdf="http://www.w3.org/1999/02/22-rdf-syntax-ns#"
   xmlns:svg="http://www.w3.org/2000/svg"
   xmlns="http://www.w3.org/2000/svg"
   xmlns:sodipodi="http://sodipodi.sourceforge.net/DTD/sodipodi-0.dtd"
   xmlns:inkscape="http://www.inkscape.org/namespaces/inkscape"
   inkscape:export-ydpi="96"
   inkscape:export-xdpi="96"
   inkscape:export-filename="/home/alberto/code/ITAQA-air-quality-aggregator/docs/img/banner.png"
   width="1600"
   height="580"
   viewBox="0 0 423.33326 153.45836"
   version="1.1"
   id="svg8"
   inkscape:version="1.0 (6e3e5246a0, 2020-05-07)"
   sodipodi:docname="banner.svg">
  <defs
     id="defs2">
    <linearGradient
       osb:paint="gradient"
       id="linearGradient3055">
      <stop
         id="stop3051"
         offset="0"
         style="stop-color:#000000;stop-opacity:1;" />
      <stop
         id="stop3053"
         offset="1"
         style="stop-color:#000000;stop-opacity:0;" />
    </linearGradient>
    <rect
       x="32.693573"
       y="-111.86261"
       width="342.97864"
       height="251.04008"
       id="rect859" />
  </defs>
  <sodipodi:namedview
     inkscape:window-maximized="1"
     inkscape:window-y="27"
     inkscape:window-x="50"
     inkscape:window-height="1016"
     inkscape:window-width="1870"
     units="px"
     showgrid="false"
     inkscape:document-rotation="0"
     inkscape:current-layer="layer1"
     inkscape:document-units="mm"
     inkscape:cy="234.53845"
     inkscape:cx="629.3009"
     inkscape:zoom="0.50000001"
     inkscape:pageshadow="2"
     inkscape:pageopacity="0.0"
     borderopacity="1.0"
     bordercolor="#666666"
     pagecolor="#ffffff"
     id="base"
     fit-margin-top="0"
     fit-margin-left="0"
     fit-margin-right="0"
     fit-margin-bottom="0">
    <inkscape:grid
       id="grid42"
       type="xygrid"
       originx="0"
       originy="90.188672" />
  </sodipodi:namedview>
  <metadata
     id="metadata5">
    <rdf:RDF>
      <cc:Work
         rdf:about="">
        <dc:format>image/svg+xml</dc:format>
        <dc:type
           rdf:resource="http://purl.org/dc/dcmitype/StillImage" />
        <dc:title />
      </cc:Work>
    </rdf:RDF>
  </metadata>
  <g
     style="display:inline"
     inkscape:groupmode="layer"
     id="layer2"
     inkscape:label="Icons"
     transform="translate(0,90.188674)">
    <g
       transform="translate(60.854199,-39.687519)"
       id="g3074">
      <path
         style="fill:#000000;stroke-width:0.0918329"
         d="m 82.438485,5.2919723 c -1.2122,-0.034153 -2.3073,-0.106174 -2.43357,-0.1600347 -0.12628,-0.053865 -0.35356,-0.2287777 -0.50508,-0.388704 -0.24964,-0.263469 -0.2755,-0.3484033 -0.2755,-0.9046108 0,-0.6094187 0.007,-0.6284014 1.09101,-2.634168 0.60006,-1.11117789 1.24561,-2.309597 1.43456,-2.6631546 0.18894,-0.3535549 0.96408,-1.7999245 1.72253,-3.2141505 2.51304,-4.6858663 6.08745,-11.3573887 7.20803,-13.4535217 0.60753,-1.136432 1.50477,-2.810087 1.99387,-3.719235 0.48912,-0.909144 1.50616,-2.804918 2.26011,-4.212835 0.75395,-1.407912 1.49534,-2.694725 1.64754,-2.859581 0.56406,-0.610983 1.5629,-0.623551 2.14614,-0.027 0.14447,0.147768 0.99738,1.660951 1.895355,3.36263 3.0101,5.7042 3.37104,6.362269 3.47113,6.328907 0.10466,-0.03489 0.26192,-0.320744 2.81524,-5.117522 0.87379,-1.641515 2.17625,-4.079676 2.89436,-5.418143 0.7181,-1.338464 1.95756,-3.652654 2.75434,-5.142642 1.46869,-2.74648 1.78688,-3.339315 2.58768,-4.821229 0.24564,-0.454575 0.57001,-1.068182 0.7208,-1.363576 0.58326,-1.142548 1.27635,-1.587754 2.11473,-1.358404 0.56375,0.154221 0.84511,0.503207 1.68605,2.091305 0.42438,0.801444 0.92538,1.746446 1.11333,2.100004 0.18795,0.353555 0.95127,1.799924 1.69629,3.214149 0.74501,1.41423 1.69488,3.211856 2.1108,3.994734 0.41594,0.782875 1.01519,1.919308 1.33169,2.525405 0.31649,0.606097 0.68868,1.308618 0.82706,1.561161 0.13838,0.252538 0.48448,0.903402 0.7691,1.446365 0.54794,1.045292 1.07366,2.042408 2.20813,4.188067 0.38335,0.725054 0.69702,1.334587 0.69702,1.354509 0,0.01992 0.53722,1.047139 1.19383,2.282699 0.65659,1.235561 1.19382,2.353393 1.19382,2.484074 0,0.27225 -0.19688,0.69174 -0.40619,0.865446 -0.0785,0.06518 -0.23436,0.152485 -0.28058,0.161 -0.2624,0.04833 -0.53127,0.02061 -0.75422,-0.118534 -0.28158,-0.175767 -0.64457,-0.731339 -1.31391,-2.01101 -0.31702,-0.606099 -0.60628,-1.135494 -0.64278,-1.176438 -0.07,-0.07855 -1.22295,1.119984 -1.63835,1.703173 -0.1344,0.188686 -0.30634,0.366529 -0.38211,0.395209 -0.0758,0.02867 -0.59232,0.578535 -1.14792,1.221909 -1.15039,1.332168 -1.48604,1.627548 -2.0097,1.768552 -0.81442,0.219301 -1.24639,-0.02697 -2.32694,-1.326646 -0.38454,-0.462512 -1.00005,-1.192192 -1.36783,-1.621512 -0.84735,-0.989176 -3.2667,-3.83756 -4.5711,-5.381707 -0.55025,-0.651391 -1.05036,-1.19653 -1.11135,-1.21142 -0.061,-0.01489 -0.59874,0.522332 -1.19499,1.193827 -2.19859,2.476101 -3.06841,3.362358 -3.41091,3.475397 -0.45358,0.149694 -1.26796,0.06792 -1.57402,-0.158056 -0.13681,-0.101002 -0.6119,-0.655345 -1.05579,-1.231874 -0.4439,-0.576525 -0.83648,-1.058453 -0.87243,-1.070951 -0.0359,-0.0125 -0.38289,0.587153 -0.771,1.332553 l -0.70564,1.355266 0.55096,1.055108 c 0.30302,0.580308 1.01786,1.943589 1.58857,3.029513 0.57068,1.085922 1.30596,2.490968 1.63394,3.1223187 0.52262,1.0060216 1.04549,2.0023086 2.91585,5.5558889 0.23925,0.4545754 0.73574,1.4050455 1.1033,2.112159 0.36755,0.7071116 1.00753,1.92619254 1.42217,2.70907131 0.41463,0.78287499 0.92279,1.75400799 1.12924,2.15807089 l 0.37535,0.7346649 11.60038,0.017873 c 6.38022,0.00982 11.87894,-0.010832 12.21939,-0.045918 l 0.61899,-0.063801 -0.12127,-0.2295827 c -0.0667,-0.1262698 -0.44411,-0.8494556 -0.83866,-1.6070768 -0.39456,-0.75762059 -0.99495,-1.89405226 -1.33422,-2.5254041 -0.33926,-0.6313518 -0.87602,-1.6438086 -1.1928,-2.2499063 -0.61779,-1.182046 -1.12162,-2.1336906 -1.7503,-3.3059846 -0.66208,-1.2345609 -1.50303,-2.9168575 -1.66585,-3.3324645 -0.12196,-0.3113447 -0.13377,-0.4555717 -0.0563,-0.6887477 0.14389,-0.433516 0.30111,-0.55821 0.73813,-0.585383 0.52152,-0.03242 0.85793,0.112865 1.06957,0.46196 0.17306,0.285456 1.64551,3.0548233 3.54639,6.6700406 0.54443,1.035416 1.12312,2.1305219 1.286,2.4335721 0.16287,0.3030465 0.82627,1.56051824 1.4742,2.7943806 1.02745,1.9565294 1.17809,2.2989421 1.17809,2.6778657 0,0.548322 -0.33535,1.0860539 -0.83066,1.3319948 -0.3444,0.1709979 -1.01274,0.175257 -28.82076,0.183628 -15.657575,0.00471 -29.460055,-0.019373 -30.672255,-0.053535 z M 113.6158,3.3492259 c 0,-0.057824 -0.22438,-0.523456 -0.49862,-1.0347373 -0.27426,-0.5112806 -0.67984,-1.280136 -0.9013,-1.70856469 -1.19933,-2.32023171 -2.66999,-5.04903761 -2.72053,-5.04797231 -0.0318,6.932e-4 -0.28523,0.2099585 -0.56302,0.4650866 -0.43898,0.4031501 -1.08984,0.9573438 -2.01736,1.7177032 -0.31027,0.254357 -1.04431,0.3604823 -1.48263,0.2143525 -0.41978,-0.1399523 -3.47358,-3.1383147 -3.49364,-3.4302237 -0.0451,-0.657976 0.22181,-1.023224 0.83252,-1.13881 0.4706,-0.08908 0.78498,0.129959 1.94002,1.351638 0.56654,0.5992287 1.10937,1.1146706 1.20628,1.1454296 0.13581,0.043105 0.45939,-0.2111101 1.41183,-1.1091646 0.6796,-0.640796 1.23564,-1.206229 1.23564,-1.256518 0,-0.08443 -1.01091,-2.0325429 -2.7541,-5.3073452 -0.94539,-1.77606 -1.26725,-2.384496 -3.08465,-5.83139 -3.758095,-7.127606 -4.958305,-9.356927 -5.053955,-9.387331 -0.0563,-0.01787 -0.79597,1.260449 -1.6438,2.840745 -0.84782,1.580299 -2.30563,4.298974 -3.23958,6.041504 -0.93395,1.74253 -2.12771,3.965207 -2.65279,4.939281 -0.5251,0.974076 -0.92893,1.812766 -0.89742,1.863756 0.13284,0.21495 2.57861,2.1937824 2.7045,2.1881654 0.0758,-0.0035 0.83652,-0.7926477 1.69057,-1.7539304 0.85406,-0.961281 1.68055,-1.825667 1.83666,-1.920863 0.31451,-0.191784 0.99423,-0.230815 1.39121,-0.07988 0.29524,0.112252 2.66567,2.417196 2.85007,2.77134 0.071,0.1363867 0.12896,0.3430097 0.12877,0.4591617 -3.5e-4,0.3092587 -0.33033,0.7987046 -0.60984,0.9049786 -0.45167,0.171724 -0.83564,-0.05385 -1.94483,-1.1425556 l -1.03979,-1.0205647 -0.23306,0.275499 c -0.12818,0.151523 -0.42641,0.482122 -0.66274,0.7346647 -0.23633,0.252538 -0.85437,0.9450777 -1.37342,1.5389736 -0.51904,0.593895 -1.06292,1.14145 -1.20861,1.216786 -0.15307,0.07916 -0.50907,0.136721 -0.84339,0.13637 -0.63759,-6.93e-4 -0.74727,-0.05354 -1.55243,-0.748312 -0.27247,-0.235125 -0.84589,-0.722516 -1.27427,-1.083085 -0.9099,-0.7658806 -0.74737,-0.8409336 -1.58068,0.730006 -0.30811,0.580844 -0.69286,1.3040309 -0.85499,1.6070769 -1.22917,2.2974909 -2.61073,4.8770592 -3.44283,6.42830224 -1.53678,2.86491676 -1.83718,3.43511816 -1.83718,3.48715016 0,0.026622 7.2525,0.048416 16.11667,0.048416 12.042845,0 16.116715,-0.026584 16.116715,-0.105136 z m 10.89175,-18.6134199 c 0.2978,-0.34511 0.9547,-1.11678 1.45977,-1.714825 0.5051,-0.598048 1.23861,-1.458139 1.63004,-1.911318 0.39145,-0.453179 0.71171,-0.866168 0.71171,-0.917755 0,-0.05158 -0.30531,-0.675768 -0.67846,-1.38707 -1.40838,-2.684657 -2.47768,-4.71573 -2.85648,-5.425755 -0.21556,-0.404066 -1.20759,-2.284343 -2.2045,-4.178397 -0.9969,-1.894054 -2.19623,-4.166918 -2.66517,-5.050813 -0.46894,-0.883889 -1.15624,-2.182766 -1.52736,-2.88639 -0.37111,-0.703625 -0.72233,-1.294599 -0.78053,-1.313272 -0.0948,-0.03044 -0.26809,0.252972 -1.13584,1.857925 -0.36314,0.671672 -2.70984,5.046557 -5.04909,9.412873 -1.12296,2.096089 -2.17516,4.059014 -2.33818,4.362065 -1.28983,2.397478 -1.32559,2.475399 -1.22209,2.663155 0.17272,0.31333 1.74507,2.341738 1.81524,2.341738 0.0365,0 0.98698,-1.031097 2.11217,-2.291327 1.21558,-1.361442 2.16749,-2.349052 2.3456,-2.43357 0.38181,-0.181185 1.0775,-0.182622 1.45599,-0.0032 0.16138,0.07659 0.56022,0.458118 0.8863,0.847856 0.32607,0.389741 0.98545,1.167056 1.46528,1.727362 1.3515,1.578199 4.6669,5.500844 5.28039,6.247573 0.30305,0.368858 0.59662,0.672852 0.65237,0.675542 0.0557,0.0027 0.34504,-0.277478 0.64284,-0.622588 z"
         id="path35"
         sodipodi:nodetypes="sssssssssssssssssssssssssssssssssssssssssssssssssscssssssscsscssssssssssssssssssssssssssssssssssssscsssscsscssssssssssssscsssssssssssssssscsssccc" />
      <path
         id="path866"
         style="fill:#37c871;fill-opacity:1;stroke-width:0.0173542;stroke-linecap:round;stroke-linejoin:round;stroke-miterlimit:4;stroke-dasharray:none"
         d="m 114.82399,-21.959585 c -0.61006,0.490903 -1.09735,1.111591 -1.6367,1.675889 -0.89943,0.984063 -1.76714,2.014253 -2.78931,2.871466 -0.40147,0.227815 -0.90001,0.154404 -1.34086,0.08474 -0.58614,-0.18806 -0.8774,-0.784793 -1.28058,-1.203285 -0.32034,-0.388332 -0.60885,-0.807277 -0.96805,-1.160564 -0.24006,-0.05076 -0.27007,0.278646 -0.3923,0.416594 -0.40415,0.732038 -0.81535,1.466793 -1.1635,2.224507 3.5656,6.825004 7.14882,13.6407602 10.71561,20.4651363 0.56731,0.072973 1.15138,0.00499 1.72511,0.027772 7.45711,-0.016487 14.91544,-6.949e-4 22.37175,-0.061274 0.12731,-0.021069 0.41736,0.00245 0.32313,-0.2064598 -1.77951,-3.40770146 -3.60097,-6.799291 -5.38473,-10.2070732 -0.50966,-1.006231 -1.06882,-1.9910389 -1.4869,-3.0389293 -0.13129,-0.393654 0.0451,-0.834052 0.35091,-1.092947 -0.0274,-0.285773 -0.25012,-0.506629 -0.34587,-0.772178 -0.40745,-0.763756 -0.74723,-1.572498 -1.22617,-2.292607 -0.18002,-0.07081 -0.37766,0.03911 -0.56742,-0.01017 -0.55348,-0.0676 -0.79587,-0.634582 -1.05909,-1.051052 -0.43521,-0.725069 -0.78176,-1.512108 -1.26542,-2.202193 -0.27231,0.05489 -0.42101,0.334985 -0.62635,0.500486 -0.69137,0.738018 -1.34183,1.514311 -2.05882,2.227387 -0.69146,0.738101 -1.29844,1.581582 -2.13945,2.159789 -0.5282,0.310652 -1.24718,0.282063 -1.69151,-0.159933 -0.65078,-0.565145 -1.14958,-1.276534 -1.72554,-1.911027 -2.05335,-2.396781 -4.06166,-4.838771 -6.15801,-7.194454 -0.0461,-0.04733 -0.111,-0.09647 -0.17993,-0.08962 z" />
      <path
         id="path868"
         style="fill:#37c871;fill-opacity:1;stroke-width:0.0122712;stroke-linecap:round;stroke-linejoin:round;stroke-miterlimit:4;stroke-dasharray:none"
         d="m 96.228455,-10.913876 c -0.99704,1.1056017 -1.97944,2.2381703 -3.00107,3.3264563 -0.25812,0.284468 -0.58646,0.535962 -0.98973,0.528083 -0.45577,0.02326 -0.97385,0.04505 -1.32948,-0.295272 -0.82701,-0.642195 -1.58489,-1.370994 -2.4227,-1.9987419 -0.27037,-0.1340957 -0.43822,0.225782 -0.54571,0.411487 -2.1709,4.0693388 -4.35731,8.13081747 -6.5161,12.2063728 -0.12884,0.1354119 0.0173,0.1876241 0.13449,0.1664864 4.32396,0.0536 8.64849,0.016073 12.97271,0.025029 6.114265,-0.00754 12.228615,-0.00528 18.342825,-0.037028 0.23849,-0.027866 0.50887,0.012076 0.72805,-0.075923 -0.051,-0.2841242 -0.24627,-0.5413452 -0.35976,-0.8101489 -1.18684,-2.27190439 -2.36045,-4.5523504 -3.61217,-6.7893855 -0.0415,-0.1210844 -0.15722,-0.2521679 -0.26495,-0.1068398 -0.87385,0.7291865 -1.70122,1.5147927 -2.6228,2.1855523 -0.38343,0.1765557 -0.84152,0.2157853 -1.25075,0.1226982 -0.54447,-0.2742391 -0.94982,-0.7557844 -1.40599,-1.1495294 -0.71575,-0.6960816 -1.46038,-1.3788745 -2.07097,-2.1735353 -0.12081,-0.307267 -0.0322,-0.696035 0.18237,-0.944317 -0.0387,-0.178396 -0.26597,-0.300442 -0.37416,-0.457528 -0.72715,-0.7706329 -1.44197,-1.5635379 -2.182225,-2.3150838 -0.16273,0.07558 -0.25317,0.2964089 -0.45615,0.3282689 -0.5277,0.143297 -0.95225,-0.2981979 -1.31501,-0.6093189 -0.55227,-0.4988787 -1.0718,-1.0322234 -1.6136,-1.5391124 z" />
      <path
         id="path879"
         style="fill:#dfeaed;fill-opacity:1;stroke-width:0.0122712;stroke-linecap:round;stroke-linejoin:round;stroke-miterlimit:4;stroke-dasharray:none"
         d="m 117.55594,-40.057495 c -0.22982,0.200903 -0.3402,0.514273 -0.50723,0.768116 -2.59442,4.76831 -5.14211,9.562009 -7.71028,14.344519 -0.49665,0.964605 -1.05808,1.898217 -1.49274,2.893077 -0.13796,0.320877 0.2043,0.560248 0.34301,0.810771 0.46996,0.607605 0.91872,1.238239 1.44529,1.797112 0.15814,0.0152 0.24885,-0.203735 0.36878,-0.284716 1.28061,-1.360991 2.48352,-2.796125 3.80995,-4.113218 0.24269,-0.272277 0.57773,-0.418446 0.94091,-0.404643 0.40695,-0.02193 0.8539,0.04772 1.13124,0.377139 0.86068,0.857827 1.59748,1.834498 2.40154,2.74804 1.71745,2.004415 3.40301,4.03681 5.12048,6.040369 0.16569,0.13404 0.28561,0.410909 0.51384,0.428431 0.38718,-0.320578 0.68952,-0.740621 1.02968,-1.111554 1.09439,-1.286685 2.20656,-2.559051 3.26933,-3.871702 0.14995,-0.122754 0.0973,-0.277071 0.006,-0.416846 -1.29852,-2.577569 -2.6785,-5.113322 -4.014,-7.671929 -2.03699,-3.848719 -4.05164,-7.709395 -6.11098,-11.54619 -0.16744,-0.262081 -0.26852,-0.598677 -0.52303,-0.787453 z" />
      <path
         id="path881"
         style="fill:#dfeaed;fill-opacity:1;stroke-width:0.0122712;stroke-linecap:round;stroke-linejoin:round;stroke-miterlimit:4;stroke-dasharray:none"
         d="m 97.650015,-26.968593 c -0.76765,1.144406 -1.37797,2.392371 -2.04611,3.598551 -2.04024,3.812667 -4.10998,7.610658 -6.11162,11.443272 -0.0934,0.194861 -0.20213,0.395271 -0.24212,0.605475 0.8152,0.780834 1.7128,1.4755697 2.62007,2.1435214 0.2091,0.06204 0.30381,-0.226536 0.45491,-0.3209287 1.0692,-1.0824847 2.03296,-2.2696307 3.15134,-3.3008477 0.40228,-0.225192 0.91878,-0.21716 1.34582,-0.08836 0.43233,0.209778 0.74389,0.625829 1.11561,0.934412 0.61299,0.598503 1.27169,1.170218 1.78173,1.861247 0.1609,0.2946857 0.10704,0.6596344 -0.0461,0.9409254 0.24563,0.3614929 0.594365,0.6406289 0.874685,0.9756469 0.55668,0.585774 1.0905,1.207206 1.66611,1.7657839 0.39745,-0.205944 0.92896,-0.327093 1.29005,0.0093 0.63271,0.476631 1.13206,1.10121 1.70908,1.6396187 0.23112,0.2322663 0.46329,0.4874715 0.75511,0.6375786 0.62848,-0.3285299 1.09327,-0.8898393 1.61329,-1.3560363 0.32492,-0.320502 0.67326,-0.628547 0.95527,-0.984077 -0.25647,-0.7199549 -0.66808,-1.3724509 -1.00581,-2.0560209 -2.8981,-5.5056323 -5.80815,-11.0050373 -8.729965,-16.4980893 -0.36365,-0.649927 -0.69986,-1.322827 -1.10525,-1.944919 -0.0141,-0.0073 -0.0305,-0.01069 -0.0461,-0.0061 z" />
      <path
         style="fill:#aababd;fill-opacity:1;stroke-width:0.0173542;stroke-linecap:round;stroke-linejoin:round;stroke-miterlimit:4;stroke-dasharray:none"
         d="m 120.91261,-27.053877 -5.03567,-10.031002 0.66815,-1.228884 c 0.76799,-1.412499 0.95853,-1.724875 1.03648,-1.699323 0.13511,0.04427 0.29162,0.332257 4.06128,7.472698 5.4856,10.390737 6.50678,12.341067 6.62627,12.655374 0.0354,0.09313 -0.0125,0.17238 -0.36408,0.601928 -0.60279,0.736508 -1.88697,2.237978 -1.92424,2.24986 -0.0179,0.0057 -2.29856,-4.503596 -5.06819,-10.020651 z"
         id="path894" />
      <path
         style="fill:#aababd;fill-opacity:1;stroke-width:0.0173542;stroke-linecap:round;stroke-linejoin:round;stroke-miterlimit:4;stroke-dasharray:none"
         d="M 106.35076,-5.0448618 C 105.03013,-7.5271147 96.236775,-24.301507 96.208975,-24.391532 c -0.017,-0.05506 0.81221,-1.558275 1.1838,-2.145987 0.13995,-0.221363 0.27199,-0.39164 0.29342,-0.378407 0.11569,0.07152 0.85591,1.415053 2.479305,4.500116 0.1329,0.252541 0.33512,0.634795 0.44938,0.849455 0.11428,0.214659 0.27372,0.514264 0.35432,0.665788 0.35843,0.673796 5.22759,9.882819 5.48678,10.377119 0.15891,0.303049 0.36591,0.6956337 0.46,0.8724127 0.49033,0.9211836 0.64622,1.2197426 1.05482,2.0203236 0.24488,0.479827 0.46957,0.9433909 0.4993,1.0301449 l 0.054,0.157733 -0.67784,0.669581 c -0.37282,0.368277 -0.80513,0.789396 -0.96071,0.935832 l -0.28284,0.2662516 z"
         id="path896" />
      <path
         style="fill:#278b4f;fill-opacity:1;stroke-width:0.0173542;stroke-linecap:round;stroke-linejoin:round;stroke-miterlimit:4;stroke-dasharray:none"
         d="m 109.1888,0.36249851 c -0.8839,-1.68213051 -1.61312,-3.07625541 -1.6205,-3.09804731 -0.0155,-0.045824 1.84472,-1.6580532 1.91311,-1.6580532 0.0669,0 1.09815,1.8862577 2.61061,4.77531231 1.3136,2.50919579 1.50078,2.89211169 1.44233,2.95056339 -0.0358,0.035775 -0.47542,0.057965 -1.39535,0.070437 l -1.34313,0.018213 z"
         id="path898" />
      <path
         style="fill:#278b4f;fill-opacity:1;stroke-width:0.0173542;stroke-linecap:round;stroke-linejoin:round;stroke-miterlimit:4;stroke-dasharray:none"
         d="m 131.59601,-5.7772028 c -2.52539,-5.0293572 -4.59733,-9.1584112 -4.60427,-9.1756782 -0.0118,-0.02933 0.32849,-0.410639 1.57747,-1.767561 0.27981,-0.303995 0.57819,-0.599817 0.66308,-0.657368 l 0.15432,-0.104645 0.17987,0.282911 c 0.099,0.155611 0.35534,0.605619 0.5698,1.000023 0.98117,1.804536 1.14082,1.979799 1.80344,1.979799 h 0.32443 l 0.18269,0.286977 c 0.10049,0.157843 0.45638,0.828655 0.79089,1.490715 0.52115,1.031467 0.60008,1.215454 0.55152,1.285661 -0.34873,0.504199 -0.40528,0.786374 -0.24363,1.2158857 0.22596,0.6004307 1.15688,2.4081056 4.15704,8.0722869 2.53663,4.7890495 2.69778,5.1036787 2.64245,5.1590356 -0.0374,0.037443 -0.64085,0.055892 -2.10494,0.064357 l -2.0525,0.011887 z"
         id="path900" />
    </g>
  </g>
  <g
     id="layer1"
     inkscape:groupmode="layer"
     inkscape:label="Text"
     transform="translate(0,90.188674)">
    <text
       xml:space="preserve"
       id="text857"
       style="font-size:10.5833px;line-height:1.25;font-family:'Love Nature';-inkscape-font-specification:'Love Nature';white-space:pre;shape-inside:url(#rect859);" />
    <text
       id="text936"
       y="-10.854085"
       x="141.66586"
       style="font-size:26.1381px;line-height:1.25;font-family:'Love Nature';-inkscape-font-specification:'Love Nature';fill:#37c871;fill-opacity:1;stroke-width:0.653454"
       xml:space="preserve"><tspan
         id="tspan938"
         style="fill:#37c871;fill-opacity:1;stroke-width:0.653454"
         y="-10.854085"
         x="141.66586"
         sodipodi:role="line">IT<tspan
   id="tspan966"
   style="fill:#000000" /></tspan></text>
    <text
       xml:space="preserve"
       style="font-size:26.1381px;line-height:1.25;font-family:'Love Nature';-inkscape-font-specification:'Love Nature';fill:#37c871;fill-opacity:1;stroke-width:0.653454"
       x="141.2908"
       y="10.838231"
       id="text944"><tspan
         sodipodi:role="line"
         x="141.2908"
         y="10.838231"
         style="fill:#37c871;fill-opacity:1;stroke-width:0.653454"
         id="tspan942">A<tspan
   id="tspan986"
   style="fill:#000000" /></tspan></text>
    <text
       id="text948"
       y="32.31263"
       x="140.07838"
       style="font-size:26.1381px;line-height:1.25;font-family:'Love Nature';-inkscape-font-specification:'Love Nature';fill:#37c871;fill-opacity:1;stroke-width:0.653454"
       xml:space="preserve"><tspan
         id="tspan946"
         style="fill:#37c871;fill-opacity:1;stroke-width:0.653454"
         y="32.31263"
         x="140.07838"
         sodipodi:role="line">Q<tspan
   id="tspan988"
   style="fill:#000000" /></tspan></text>
    <text
       xml:space="preserve"
       style="font-size:26.1381px;line-height:1.25;font-family:'Love Nature';-inkscape-font-specification:'Love Nature';fill:#37c871;fill-opacity:1;stroke-width:0.653454"
       x="141.2908"
       y="56.339592"
       id="text952"><tspan
         sodipodi:role="line"
         x="141.2908"
         y="56.339592"
         style="fill:#37c871;fill-opacity:1;stroke-width:0.653454"
         id="tspan950">A<tspan
   id="tspan990"
   style="fill:#000000" /></tspan></text>
    <text
       xml:space="preserve"
       style="font-size:22.5778px;line-height:1.25;font-family:'Love Nature';-inkscape-font-specification:'Love Nature';fill:#37c871;fill-opacity:1;stroke-width:0.653454"
       x="159.65897"
       y="-10.854085"
       id="text869"><tspan
         sodipodi:role="line"
         x="159.65897"
         y="-10.854085"
         style="font-size:22.5778px;fill:#37c871;fill-opacity:1;stroke-width:0.653454"
         id="tspan867"><tspan
           style="font-size:22.5778px;fill:#000000"
           id="tspan865">ALY</tspan></tspan></text>
    <text
       id="text875"
       y="10.838231"
       x="159.28391"
       style="font-size:22.5778px;line-height:1.25;font-family:'Love Nature';-inkscape-font-specification:'Love Nature';fill:#37c871;fill-opacity:1;stroke-width:0.653454"
       xml:space="preserve"><tspan
         id="tspan873"
         style="font-size:22.5778px;fill:#37c871;fill-opacity:1;stroke-width:0.653454"
         y="10.838231"
         x="159.28391"
         sodipodi:role="line"><tspan
           style="font-size:22.5778px;fill:#000000"
           id="tspan871">IR</tspan></tspan></text>
    <text
       xml:space="preserve"
       style="font-size:22.5778px;line-height:1.25;font-family:'Love Nature';-inkscape-font-specification:'Love Nature';fill:#37c871;fill-opacity:1;stroke-width:0.653454"
       x="158.07149"
       y="32.31263"
       id="text881"><tspan
         sodipodi:role="line"
         x="158.07149"
         y="32.31263"
         style="font-size:22.5778px;fill:#37c871;fill-opacity:1;stroke-width:0.653454"
         id="tspan879"><tspan
           style="font-size:22.5778px;fill:#000000"
           id="tspan877">UALITY</tspan></tspan></text>
    <text
       id="text887"
       y="56.339592"
       x="159.28391"
       style="font-size:22.5778px;line-height:1.25;font-family:'Love Nature';-inkscape-font-specification:'Love Nature';fill:#37c871;fill-opacity:1;stroke-width:0.653454"
       xml:space="preserve"><tspan
         id="tspan885"
         style="font-size:22.5778px;fill:#37c871;fill-opacity:1;stroke-width:0.653454"
         y="56.339592"
         x="159.28391"
         sodipodi:role="line"><tspan
           style="font-size:22.5778px;fill:#000000"
           id="tspan883">GGREGATOR</tspan></tspan></text>
  </g>
</svg>
